<svg version="1.2" xmlns="http://www.w3.org/2000/svg" viewBox="0 0 192 165" width="50" height="43">
	<title>wifi-eps</title>
	<defs>
		<clipPath clipPathUnits="userSpaceOnUse" id="cp1">
			<path d="m0 0h192v165h-192z"/>
		</clipPath>
	</defs>
	<style>
		.s0 { fill: #2974ff } 
	</style>
	<g id="Page 1 copy" clip-path="url(#cp1)">
		<path id="Path 1" fill-rule="evenodd" class="s0" d="m158.5 65.9c4.2 4 4.6 10.4 0.7 14.6-2.1 2.3-4.8 3.3-7.7 3.3-2.5 0-5-0.8-7.1-2.7-46.3-42.3-96.1-2.1-98.2-0.4-4.3 3.8-11 3.1-14.5-1.2-3.8-4.4-3.2-10.9 1.2-14.6 22.7-19 77.7-42.9 125.6 1zm-48.1 63.8c3.8 3.7 5.9 8.7 5.9 13.9 0 5.2-2.1 10.2-5.9 14-3.5 3.7-8.7 5.8-13.9 5.8-5.2 0-10.3-2.1-14-5.8-3.7-3.8-5.8-8.8-5.8-14 0-5.2 2.1-10.2 5.8-13.9 3.5-3.8 8.8-5.9 14-5.9 5.2 0 10.2 2.1 13.9 5.9zm19.8-34.4c4.4 3.7 4.6 10.4 0.6 14.6-2 2.3-5 3.3-7.7 3.3-2.5 0-5-0.8-7.1-2.7-18.7-17.5-40.8-0.4-41.6 0.2-4.4 3.6-11.1 2.9-14.6-1.7-3.5-4.5-2.9-11 1.7-14.5 12.7-9.8 43.5-22.5 68.7 0.8z"/>
	</g>
</svg>